<svg width="239" height="63" viewBox="0 0 239 63" fill="none" xmlns="http://www.w3.org/2000/svg">
<g clip-path="url(#clip0_315_537)">
<path d="M28.0242 -0.0222439C28.1356 -0.0218213 28.247 -0.0215 28.3584 -0.0212747C28.6491 -0.0204194 28.9396 -0.0182056 29.2302 -0.0156908C29.5278 -0.0133618 29.8255 -0.0123426 30.1231 -0.0112071C30.7051 -0.00879647 31.287 -0.00485585 31.869 -0.000170229C31.9627 0.670982 31.9977 1.32605 31.9946 2.00325C31.9946 2.1052 31.9946 2.20716 31.9947 2.30912C31.9947 2.57905 31.994 2.84897 31.9932 3.1189C31.9926 3.37336 31.9926 3.62783 31.9925 3.8823C31.9919 4.62363 31.9903 5.36496 31.9889 6.10628C31.9865 7.76477 31.9842 9.42326 31.9818 11.132C35.3695 11.1134 38.7572 11.0947 42.2476 11.0755C42.3593 10.7958 42.471 10.5161 42.586 10.2279C42.6729 10.0384 42.7601 9.85205 42.854 9.66632C42.8775 9.61935 42.9011 9.57238 42.9253 9.52399C43.4897 8.41844 43.4897 8.41844 43.7706 8.13706C43.8905 8.13158 44.0106 8.13017 44.1307 8.13026C44.1687 8.13021 44.2068 8.13017 44.246 8.13012C44.3744 8.13002 44.5029 8.13033 44.6313 8.13064C44.723 8.13066 44.8147 8.13065 44.9064 8.13062C45.1561 8.1306 45.4059 8.13093 45.6556 8.13133C45.9163 8.13168 46.177 8.13171 46.4377 8.13178C46.9317 8.13196 47.4257 8.13242 47.9198 8.13299C48.482 8.13362 49.0443 8.13393 49.6066 8.13421C50.7635 8.1348 51.9205 8.1358 53.0775 8.13706C53.0855 8.09297 53.0935 8.04889 53.1017 8.00347C53.2092 7.50606 53.6801 7.05992 54.0851 6.78372C54.8278 6.33275 55.6205 6.14003 56.4889 6.3109C57.398 6.57315 58.1582 7.1051 58.6391 7.9278C58.8127 8.2639 58.9684 8.60388 59.0001 8.98468C59.0036 9.02242 59.0072 9.06015 59.0108 9.09903C59.0559 9.97539 58.6936 10.8418 58.1293 11.4958C57.505 12.1476 56.7818 12.4838 55.8801 12.5059C54.9716 12.4904 54.2101 12.1619 53.5679 11.5229C53.1958 11.1193 52.739 10.4614 52.739 9.88882C52.7041 9.88953 52.6691 9.89024 52.633 9.89097C48.0008 9.98427 48.0008 9.98427 45.8432 9.80825C45.7807 9.80349 45.7807 9.80349 45.717 9.79864C45.6151 9.79081 45.5134 9.78204 45.4116 9.77316C45.1501 9.77713 44.9444 9.80108 44.7396 9.97705C44.5221 10.2111 44.371 10.4605 44.2367 10.7495C44.1342 10.9687 44.0255 11.1848 43.917 11.4011C43.8587 11.5196 43.8019 11.639 43.7472 11.7591C43.287 12.7613 43.287 12.7613 42.8992 12.9515C42.5075 13.0488 42.1114 12.999 41.714 12.9637C41.5806 12.957 41.4473 12.951 41.3139 12.9458C41.0255 12.9342 40.7375 12.9198 40.4493 12.9039C39.9797 12.8795 39.511 12.8783 39.0408 12.8822C39.0006 12.8825 38.9603 12.8828 38.9189 12.8832C38.7128 12.885 38.5068 12.8871 38.3007 12.8895C37.9217 12.8937 37.5426 12.8955 37.1635 12.8976C36.9502 12.8988 36.7368 12.9003 36.5234 12.9017C36.1778 12.904 35.8322 12.9059 35.4867 12.9076C33.2178 12.9101 33.2178 12.9101 30.9511 12.9928C30.9128 12.995 30.8746 12.9973 30.8352 12.9995C27.31 13.213 24.0382 14.2476 21.1096 16.2268C20.3308 16.7514 20.3308 16.7514 19.9588 16.9199C19.7791 17.0195 19.719 17.0975 19.6114 17.2702C19.3931 17.5875 19.1402 17.8537 18.8675 18.1249C18.8274 18.165 18.7872 18.205 18.7458 18.2463C18.5524 18.4367 18.3559 18.6213 18.1508 18.7991C16.9989 19.7975 16.1631 21.1779 15.4374 22.5008C15.3999 22.569 15.3999 22.569 15.3617 22.6386C14.8991 23.5001 14.511 24.3895 14.1702 25.3057C14.1084 25.4707 14.0447 25.6348 13.981 25.7991C13.7117 26.5098 13.5723 27.1806 13.4979 27.9357C13.4823 28.0716 13.4608 28.2038 13.4344 28.338C13.2743 29.1541 13.2857 29.9751 13.2895 30.8034C13.2905 31.0148 13.2899 31.2261 13.2889 31.4375C13.2841 32.6759 13.3185 33.915 13.6359 35.1199C13.6501 35.1765 13.6642 35.2332 13.6788 35.2916C13.8042 35.7867 13.9423 36.2787 14.0859 36.7688C14.1561 37.0116 14.2204 37.2452 14.2473 37.497C14.2753 37.7313 14.3447 37.7966 14.4961 37.9736C14.6646 38.266 14.7958 38.5778 14.9301 38.887C15.5018 40.1983 16.2156 41.4122 17.1285 42.5165C17.1783 42.5767 17.2277 42.6372 17.2768 42.698C17.6505 43.1608 18.0576 43.5873 18.4762 44.0094C18.5248 44.0586 18.5735 44.1079 18.6236 44.1586C18.9601 44.4941 19.3132 44.7986 19.6854 45.0936C19.75 45.1455 19.75 45.1455 19.8159 45.1984C20.6005 45.8267 21.4133 46.388 22.2816 46.8936C22.3566 46.9373 22.4314 46.9812 22.5061 47.0255C24.9102 48.4437 27.6248 49.1109 30.3778 49.4024C30.4218 49.4071 30.4658 49.4118 30.5111 49.4166C31.5369 49.5245 32.5587 49.5665 33.5897 49.5642C33.6949 49.5642 33.8001 49.5642 33.9053 49.5642C34.1871 49.5643 34.469 49.5639 34.7508 49.5635C35.0467 49.5632 35.3427 49.5632 35.6386 49.5631C36.1973 49.5629 36.756 49.5624 37.3147 49.5619C37.9515 49.5612 38.5883 49.5609 39.225 49.5607C40.5334 49.5601 41.8417 49.5591 43.1501 49.5578C43.2304 49.7004 43.3107 49.843 43.3909 49.9856C43.4134 50.0255 43.4358 50.0654 43.459 50.1065C43.6989 50.5332 43.9284 50.9654 44.1568 51.3984C44.1889 51.4586 44.2209 51.5188 44.254 51.5809C44.2818 51.6334 44.3095 51.6859 44.3382 51.7401C44.3742 51.8031 44.4103 51.8662 44.4474 51.9312C44.4705 51.9813 44.4936 52.0315 44.5174 52.0831C44.6908 52.4209 44.6908 52.4209 45.0044 52.6102C45.2092 52.6317 45.4061 52.6334 45.612 52.6285C45.6898 52.6289 45.7677 52.6296 45.8456 52.6305C46.0561 52.6321 46.2664 52.63 46.4769 52.6272C46.6972 52.6249 46.9174 52.6261 47.1377 52.627C47.5544 52.628 47.9711 52.6259 48.3878 52.6227C48.8624 52.6192 49.3369 52.6192 49.8115 52.6195C50.7874 52.62 51.7632 52.6161 52.739 52.6093C52.7461 52.5752 52.7532 52.5411 52.7605 52.506C52.7749 52.4383 52.7749 52.4383 52.7897 52.3692C52.7991 52.3246 52.8085 52.2801 52.8182 52.2342C52.8705 52.0268 52.9562 51.8421 53.0528 51.6522C53.0726 51.6132 53.0924 51.5741 53.1128 51.534C53.5276 50.7486 54.1455 50.2929 54.973 50.0068C55.803 49.7752 56.6821 49.8866 57.4383 50.2959C58.2402 50.8126 58.7623 51.5739 58.9776 52.5053C59.0939 53.3357 58.9553 54.0584 58.4924 54.7566C57.8882 55.5351 57.1567 56.0161 56.1798 56.1693C55.3339 56.2562 54.4925 55.9861 53.8149 55.4813C53.4419 55.1607 53.1693 54.8501 53.0775 54.361C53.0328 54.3612 52.9882 54.3613 52.9422 54.3615C51.8552 54.3653 50.7681 54.3681 49.6811 54.3698C49.1554 54.3707 48.6297 54.3719 48.104 54.3738C47.6457 54.3755 47.1875 54.3766 46.7292 54.377C46.4866 54.3772 46.244 54.3777 46.0015 54.379C45.7729 54.3801 45.5444 54.3805 45.3159 54.3802C45.2322 54.3802 45.1486 54.3806 45.0649 54.3812C44.5044 54.3854 44.0235 54.3817 43.6013 53.9655C43.4949 53.8061 43.4949 53.8061 43.3933 53.6194C43.3653 53.5683 43.3653 53.5683 43.3366 53.5163C43.2959 53.4422 43.2554 53.3679 43.2151 53.2935C43.1469 53.1685 43.0774 53.0442 43.0075 52.9201C42.9834 52.877 42.9593 52.834 42.9344 52.7897C42.8855 52.7024 42.8365 52.6153 42.7874 52.5282C42.6488 52.2799 42.5311 52.031 42.4204 51.7687C42.3088 51.5489 42.2243 51.4313 41.9973 51.3308C40.7496 51.0295 39.3986 51.124 38.1246 51.1289C37.9596 51.1295 37.7945 51.1298 37.6295 51.1301C36.258 51.1328 34.8866 51.1399 33.5153 51.1612C33.4505 51.1621 33.3857 51.163 33.319 51.1638C33.1408 51.1663 32.9626 51.1696 32.7845 51.1732C32.7333 51.1738 32.682 51.1745 32.6293 51.1751C32.583 51.1763 32.5367 51.1774 32.4891 51.1785C32.4294 51.1797 32.4294 51.1797 32.3686 51.1808C32.245 51.1918 32.245 51.1918 32.0946 51.3096C32.0265 51.5285 32.0098 51.7606 31.9818 51.9877C31.974 52.0461 31.974 52.0461 31.9661 52.1056C31.7659 53.6388 31.8894 55.1826 31.99 56.7186C32.0545 57.7037 32.1052 58.6851 32.1047 59.6726C32.1048 59.7138 32.1048 59.7549 32.1048 59.7973C32.1042 60.5408 32.0707 61.2744 31.9232 62.0042C31.913 62.0546 31.9029 62.1049 31.8924 62.1568C31.8847 62.1949 31.877 62.233 31.869 62.2722C31.1654 62.2775 30.4617 62.2815 29.7581 62.2839C29.4313 62.2851 29.1046 62.2867 28.7778 62.2893C28.4622 62.2917 28.1466 62.2931 27.8309 62.2937C27.7108 62.2941 27.5907 62.2949 27.4706 62.2961C27.3017 62.2978 27.1328 62.298 26.9639 62.2979C26.9148 62.2987 26.8657 62.2995 26.8151 62.3004C26.3345 62.2972 25.8909 62.1463 25.5359 61.8142C24.791 60.9935 24.5338 60.1095 24.5244 59.0184C24.5228 58.9145 24.5212 58.8106 24.5195 58.7068C24.5172 58.5454 24.5151 58.384 24.5136 58.2225C24.5054 57.3976 24.4942 56.6018 23.9312 55.9422C22.9152 54.9459 20.4713 53.9353 19.0497 53.95C18.334 54.0026 17.6968 54.3816 17.2227 54.91C17.1472 54.9826 17.1472 54.9826 17.0343 54.9826C17.0193 55.016 17.0042 55.0494 16.9887 55.0838C16.8754 55.2945 16.7023 55.4474 16.5337 55.6148C16.4958 55.6525 16.4579 55.6902 16.4188 55.729C15.6891 56.4425 14.9722 56.9248 13.931 56.9211C12.625 56.8944 11.5487 55.6292 10.6424 54.7869C10.5705 54.721 10.4979 54.6557 10.4251 54.5907C10.0981 54.299 9.78274 53.9986 9.47358 53.688C9.42774 53.6421 9.3819 53.5963 9.33467 53.549C9.23872 53.4529 9.14284 53.3568 9.04703 53.2605C8.90133 53.1143 8.75534 52.9683 8.60932 52.8224C8.51548 52.7283 8.42165 52.6343 8.32784 52.5402C8.28477 52.4971 8.24169 52.4541 8.19731 52.4097C7.96498 52.176 7.74176 51.9374 7.52711 51.6872C7.42278 51.5658 7.3142 51.4485 7.20568 51.3308C6.4148 50.4495 5.66316 49.5922 5.68273 48.357C5.74134 47.4763 6.18302 46.8121 6.82715 46.2335C6.8991 46.1724 6.97115 46.1114 7.04329 46.0505C7.28289 45.8325 7.49475 45.5866 7.71008 45.3449C7.7768 45.271 7.84523 45.1985 7.91383 45.1263C8.3879 44.6209 8.58955 44.1016 8.64755 43.416C8.61059 42.327 8.11182 41.3206 7.65306 40.358C7.48555 40.0033 7.33669 39.6579 7.23036 39.2803C7.11906 38.9156 6.98054 38.7789 6.65573 38.5952C6.5626 38.5261 6.46978 38.4566 6.37722 38.3868C5.84285 38.0154 5.27343 37.9677 4.63923 37.9616C4.54456 37.9601 4.44989 37.9584 4.35522 37.9568C4.20885 37.9545 4.0625 37.9524 3.91612 37.9509C2.84094 37.9389 1.72673 37.8817 0.912939 37.0913C0.276683 36.3958 0.109629 35.562 0.0503314 34.6464C0.0455999 34.5736 0.0408675 34.5007 0.0359925 34.4257C-0.0213215 33.4751 -0.0192009 32.5229 -0.0179308 31.5709C-0.0176692 31.3588 -0.0180627 31.1467 -0.0190876 30.9345C-0.0240135 29.9021 -0.0241293 28.873 0.0714835 27.8442C0.0775807 27.7771 0.083677 27.71 0.0899589 27.6409C0.181877 26.7838 0.393427 25.7115 1.06827 25.1152C1.93127 24.5049 2.85431 24.4991 3.86718 24.4927C5.43463 24.5129 5.43463 24.5129 6.76061 23.7575C7.24663 23.2057 7.47655 22.4929 7.7306 21.8143C8.05042 20.9651 8.05042 20.9651 8.30551 20.652C8.50203 20.4042 8.55751 20.2098 8.54862 19.8915C8.54849 19.8495 8.54835 19.8075 8.54822 19.7642C8.54767 19.6758 8.54645 19.5875 8.54458 19.4991C8.54181 19.3655 8.54111 19.2321 8.54079 19.0985C8.53401 18.1059 8.53401 18.1059 8.01614 17.288C7.95403 17.2269 7.89163 17.1661 7.82901 17.1056C7.76007 17.0377 7.69114 16.9698 7.62222 16.9018C7.51496 16.7968 7.40757 16.692 7.3 16.5873C5.71151 15.038 5.71151 15.038 5.67746 13.9494C5.67066 13.4393 5.72486 13.0546 5.97886 12.6012C6.01692 12.5281 6.01692 12.5281 6.05576 12.4536C6.35737 11.9265 6.79769 11.5055 7.21978 11.0755C7.26657 11.0278 7.31336 10.98 7.36157 10.9309C7.51016 10.7797 7.6592 10.629 7.80851 10.4786C7.85521 10.4316 7.9019 10.3845 7.95001 10.336C8.19161 10.0947 8.43763 9.86297 8.69623 9.64004C8.8509 9.50436 8.99646 9.36052 9.14109 9.21425C9.17032 9.18486 9.19955 9.15547 9.22967 9.12518C9.41589 8.93652 9.59178 8.74186 9.76332 8.53968C9.93411 8.34894 10.1176 8.17114 10.2996 7.99125C10.453 7.8389 10.5997 7.68542 10.7381 7.519C11.4833 6.64946 12.6216 5.62463 13.8058 5.51868C15.0219 5.50656 15.7546 6.08649 16.5953 6.90772C16.763 7.07297 16.9289 7.23989 17.0945 7.4073C17.6232 7.93166 18.2103 8.46772 18.9839 8.50083C19.7549 8.47214 20.4895 8.15052 21.1978 7.86864C21.2881 7.83298 21.3784 7.79732 21.4687 7.76167C21.7207 7.66179 21.9723 7.56068 22.2237 7.45896C22.2837 7.43468 22.3438 7.41041 22.4058 7.38539C23.2315 7.04768 23.9276 6.67719 24.3263 5.83809C24.5055 5.40814 24.5441 5.034 24.5462 4.57172C24.5475 4.45753 24.5489 4.34333 24.5503 4.22914C24.5522 4.05049 24.5539 3.87185 24.5547 3.69319C24.5581 3.02611 24.565 2.43354 24.8183 1.8081C24.8513 1.7116 24.8842 1.61507 24.917 1.5185C25.153 0.954987 25.5203 0.5133 26.0592 0.225864C26.7072 -0.0379696 27.3369 -0.029983 28.0242 -0.0222439Z" fill="white"/>
<path d="M25.7601 19.7675C25.9146 19.7675 26.0692 19.7671 26.2238 19.7663C27.3764 19.7607 28.5135 19.7857 29.6482 20.0075C29.7084 20.0193 29.7687 20.0311 29.8308 20.0432C30.8742 20.2602 31.901 20.6036 32.828 21.1342C32.8912 21.1701 32.9544 21.206 33.0195 21.243C34.7125 22.247 35.9688 23.7554 36.4733 25.6762C37.0177 27.8865 36.7087 30.048 35.5373 31.9993C34.9197 32.9543 34.1253 33.9018 33.0537 34.3572C32.9978 34.3572 32.942 34.3572 32.8844 34.3572C33.0822 35.4579 33.9173 36.3598 34.6052 37.1934C34.721 37.334 34.8356 37.4756 34.9503 37.617C35.1054 37.807 35.2626 37.9949 35.4216 38.1815C35.772 38.5932 36.1095 39.0136 36.438 39.4429C36.48 39.4978 36.522 39.5526 36.5653 39.6092C36.677 39.7587 36.7844 39.9101 36.8892 40.0645C36.9232 40.1143 36.9571 40.164 36.9921 40.2153C37.2701 40.6651 37.2886 41.0558 37.2025 41.5711C37.0138 42.3261 36.4767 42.8762 35.8457 43.2961C34.8451 43.8676 33.5718 44.0282 32.4576 43.7469C30.6637 43.1376 29.8525 41.5798 28.9545 40.0345C28.6466 39.5048 28.3301 38.983 27.9899 38.4733C27.9197 38.3677 27.8505 38.2614 27.7815 38.1549C27.0835 36.9428 27.0835 36.9428 26.0594 36.1089C25.2991 36.0494 25.2991 36.0494 24.5809 36.235C24.4312 36.3834 24.427 36.5413 24.4179 36.7472C24.4188 36.8141 24.4188 36.8141 24.4197 36.8823C24.4206 36.9596 24.4206 36.9596 24.4214 37.0385C24.4223 37.0944 24.4232 37.1503 24.4242 37.2078C24.4249 37.2672 24.4256 37.3266 24.4264 37.3878C24.428 37.5166 24.4297 37.6455 24.4315 37.7743C24.4344 37.9783 24.4369 38.1824 24.4392 38.3864C24.446 38.9665 24.4534 39.5467 24.4613 40.1268C24.4661 40.4818 24.4704 40.8368 24.4743 41.1918C24.4759 41.3269 24.4777 41.462 24.4798 41.5971C24.4826 41.7863 24.4848 41.9755 24.4867 42.1647C24.4878 42.2202 24.4888 42.2757 24.4898 42.333C24.4929 42.7255 24.4956 43.0914 24.2156 43.3915C23.7327 43.7019 23.1486 43.69 22.5924 43.6926C22.5365 43.6929 22.4805 43.6932 22.4229 43.6935C22.3048 43.6941 22.1867 43.6944 22.0687 43.6947C21.8912 43.6952 21.7137 43.697 21.5362 43.6987C20.4329 43.7046 19.286 43.6667 18.4515 42.8507C17.8162 42.1592 17.7591 41.2263 17.7602 40.3296C17.7601 40.2527 17.76 40.1758 17.7598 40.0989C17.7595 39.8882 17.7595 39.6774 17.7596 39.4667C17.7596 39.2392 17.7593 39.0117 17.759 38.7842C17.7585 38.3387 17.7584 37.8932 17.7583 37.4477C17.7583 37.0856 17.7582 36.7235 17.758 36.3613C17.7575 35.3343 17.7573 34.3073 17.7573 33.2803C17.7573 33.2249 17.7573 33.1696 17.7573 33.1126C17.7573 33.0572 17.7573 33.0018 17.7573 32.9447C17.7573 32.0465 17.7568 31.1483 17.756 30.2501C17.7552 29.3276 17.7548 28.405 17.7548 27.4825C17.7549 26.9647 17.7547 26.4469 17.7541 25.9291C17.7536 25.4882 17.7535 25.0474 17.7538 24.6066C17.754 24.3817 17.754 24.1569 17.7535 23.9321C17.7531 23.7261 17.7532 23.5201 17.7537 23.3141C17.7538 23.2046 17.7534 23.0952 17.7529 22.9858C17.7556 22.311 17.8594 21.7671 18.3177 21.2485C20.0231 19.6325 23.5729 19.7672 25.7601 19.7675ZM24.48 25.0898C24.48 27.0664 24.48 29.0431 24.48 31.0797C27.0151 31.2454 27.0151 31.2454 29.2287 30.3309C29.6537 29.9145 29.8822 29.4376 30.0642 28.8758C30.0781 28.8329 30.0921 28.79 30.1065 28.7458C30.3166 27.9696 30.188 27.1124 29.8103 26.4109C29.3894 25.7422 28.7896 25.3888 28.0336 25.2028C27.2985 25.0361 26.5627 25.0182 25.8126 25.0191C25.7474 25.0192 25.7474 25.0192 25.6808 25.0193C25.2743 25.0205 24.8839 25.032 24.48 25.0898Z" fill="white"/>
<path d="M61.8738 37.8713C62.4683 38.3757 62.9948 39.1094 63.0735 39.9042C63.138 40.8748 62.9143 41.6915 62.2717 42.4379C61.4214 43.1872 60.5271 43.4003 59.4259 43.3528C58.8371 43.3086 58.3371 43.0782 57.8721 42.7204C57.8113 42.6738 57.8113 42.6738 57.7494 42.6262C57.3708 42.2926 57.157 41.8256 56.9696 41.3642C56.9696 41.2896 56.9696 41.2151 56.9696 41.1382C55.7428 41.1416 54.5161 41.146 53.2893 41.1515C52.7197 41.1541 52.15 41.1563 51.5804 41.1578C51.0838 41.1591 50.5872 41.161 50.0906 41.1636C49.8278 41.1649 49.5649 41.166 49.3021 41.1663C49.0544 41.1667 48.8068 41.1678 48.5592 41.1695C48.4685 41.17 48.3778 41.1702 48.2872 41.1701C47.6179 41.1663 47.6179 41.1663 46.9858 41.3642C46.9215 41.4722 46.9215 41.4722 46.873 41.5903C46.7912 41.7119 46.7082 41.8315 46.6227 41.9505C46.5978 41.9852 46.573 42.0199 46.5473 42.0557C46.2197 42.5093 45.8724 42.9476 45.5186 43.3809C44.8962 44.1409 44.8962 44.1409 44.3912 44.9808C46.8668 44.9808 49.3424 44.9808 51.8931 44.9808C51.9769 44.7011 51.9769 44.7011 52.0623 44.4157C52.3682 43.7388 52.9268 43.2278 53.6091 42.9467C54.481 42.6404 55.4894 42.7114 56.3224 43.1063C57.1071 43.4984 57.5715 44.0298 57.8771 44.8653C58.1183 45.673 58.0175 46.5589 57.6722 47.3199C57.2603 48.0707 56.6027 48.5624 55.8168 48.8834C55.0043 49.1098 53.912 48.9391 53.1904 48.5408C52.5586 48.0928 52.2567 47.4771 51.8931 46.7891C45.3596 46.7704 38.8262 46.7518 32.0948 46.7325C31.839 46.0279 31.8464 45.6947 31.9255 44.9808C35.2946 44.9808 38.6637 44.9808 42.1349 44.9808C42.1722 44.9062 42.2094 44.8316 42.2477 44.7547C42.3307 44.6411 42.4148 44.5299 42.5016 44.4192C42.5528 44.3532 42.6041 44.2871 42.6554 44.221C42.6815 44.1875 42.7076 44.154 42.7345 44.1194C43.2805 43.418 43.8186 42.7103 44.3356 41.9871C44.6411 41.5599 44.9497 41.1401 45.2936 40.7426C45.3176 40.7148 45.3416 40.687 45.3663 40.6584C46.3605 39.5132 46.3605 39.5132 46.991 39.4268C47.1244 39.42 47.2569 39.4183 47.3905 39.4185C47.441 39.4179 47.4914 39.4174 47.5434 39.4168C47.7099 39.4151 47.8764 39.4145 48.043 39.414C48.1606 39.4131 48.2783 39.412 48.3959 39.411C48.7066 39.4083 49.0172 39.4066 49.3279 39.4051C49.637 39.4035 49.9461 39.4008 50.2551 39.3982C50.7898 39.394 51.3244 39.3909 51.859 39.3887C52.1622 39.3874 52.4653 39.3856 52.7684 39.3832C53.5989 39.3768 54.4197 39.3814 55.2457 39.4783C56.0875 39.6077 56.0875 39.6077 56.8506 39.3185C56.9809 39.1454 57.0813 38.9712 57.1811 38.779C57.586 38.0424 58.2103 37.5759 59.0002 37.2992C59.075 37.2778 59.1502 37.2575 59.2258 37.2391C59.2782 37.2263 59.3305 37.2135 59.3845 37.2003C60.3215 37.1082 61.1125 37.3048 61.8738 37.8713Z" fill="white"/>
<path d="M32.9038 18.0136C32.951 18.0136 32.9982 18.0137 33.0469 18.0137C33.205 18.0139 33.3632 18.0149 33.5213 18.0159C33.6347 18.0162 33.7481 18.0165 33.8615 18.0167C34.1695 18.0174 34.4776 18.0189 34.7856 18.0206C35.0427 18.0219 35.2997 18.0229 35.5568 18.0239C36.1633 18.0262 36.7697 18.0292 37.3762 18.0325C38.002 18.0359 38.6277 18.0383 39.2535 18.0402C39.7907 18.0419 40.3279 18.0442 40.8651 18.047C41.186 18.0486 41.5068 18.0501 41.8277 18.0509C42.1294 18.0517 42.4311 18.0533 42.7329 18.0555C42.8436 18.0561 42.9543 18.0565 43.0651 18.0566C43.2162 18.0568 43.3674 18.058 43.5185 18.0594C43.5624 18.0592 43.6062 18.059 43.6513 18.0588C43.9658 18.0635 44.2057 18.126 44.4341 18.3494C44.6352 18.6277 44.7728 18.9035 44.8924 19.2248C44.9113 19.2737 44.9302 19.3226 44.9496 19.373C45.0086 19.5266 45.0666 19.6805 45.1244 19.8345C45.1612 19.9313 45.1981 20.0281 45.235 20.1248C45.3268 20.3665 45.4179 20.6084 45.5088 20.8504C46.0563 22.3414 46.0563 22.3414 46.7038 23.7901C53.6281 23.8181 53.6281 23.8181 60.6924 23.8466C60.7761 23.5669 60.7761 23.5669 60.8616 23.2815C61.2271 22.3861 61.7717 21.8188 62.6419 21.3991C63.42 21.077 64.2565 21.1268 65.0321 21.4238C65.9095 21.8091 66.4152 22.4165 66.7842 23.2815C67.0345 23.9895 66.9711 24.8362 66.702 25.5288C66.3209 26.328 65.6986 26.8857 64.8961 27.2426C64.0769 27.5222 63.1081 27.4079 62.3281 27.0676C61.8384 26.8223 61.5069 26.4212 61.2 25.9763C60.9872 25.6838 60.7 25.5609 60.3539 25.4853C60.2775 25.4804 60.2008 25.4781 60.1242 25.4781C60.0559 25.4778 60.0559 25.4778 59.9862 25.4775C59.9366 25.4776 59.8869 25.4777 59.8357 25.4778C59.7827 25.4777 59.7296 25.4775 59.675 25.4774C59.4968 25.477 59.3186 25.4771 59.1405 25.4771C59.0129 25.477 58.8853 25.4768 58.7577 25.4766C58.4106 25.4761 58.0635 25.4759 57.7164 25.4759C57.4994 25.4758 57.2824 25.4757 57.0654 25.4756C56.3469 25.4751 55.6283 25.4748 54.9098 25.4749C54.8517 25.4749 54.8517 25.4749 54.7924 25.4749C54.7342 25.4749 54.7342 25.4749 54.6749 25.4749C54.0477 25.4749 53.4206 25.4744 52.7934 25.4736C52.1486 25.4727 51.5037 25.4724 50.8589 25.4724C50.4972 25.4724 50.1355 25.4723 49.7739 25.4717C49.4332 25.4711 49.0925 25.4711 48.7518 25.4715C48.6273 25.4716 48.5027 25.4714 48.3782 25.4711C47.7742 25.4695 47.1865 25.4766 46.5896 25.5752C46.2949 25.6159 46.0416 25.5923 45.7625 25.4818C45.4193 25.1937 45.2343 24.8272 45.0874 24.4115C45.0699 24.3639 45.0524 24.3164 45.0344 24.2675C44.9791 24.1168 44.9248 23.9658 44.8706 23.8148C44.7986 23.6169 44.7262 23.4191 44.6538 23.2212C44.6362 23.173 44.6187 23.1248 44.6006 23.0752C44.3627 22.4239 44.1015 21.7834 43.8236 21.1483C43.7891 21.0689 43.7891 21.0689 43.7538 20.9878C43.5938 20.6205 43.4287 20.256 43.263 19.891C37.651 19.863 37.651 19.863 31.9255 19.8345C31.9255 18.3895 31.9255 18.3895 32.1512 18.1392C32.3963 18.009 32.633 18.011 32.9038 18.0136Z" fill="white"/>
<path d="M58.8272 12.4793C59.622 12.4447 60.3863 12.6641 60.9885 13.1841C61.6459 13.8098 61.9824 14.5568 62.0439 15.4604C62.0536 16.3097 61.8377 17.0674 61.3128 17.7437C61.2725 17.7958 61.2725 17.7958 61.2313 17.849C60.8262 18.3089 60.1481 18.6041 59.5449 18.6601C58.6818 18.7017 57.8153 18.6435 57.0824 18.1392C57.0335 18.1078 56.9847 18.0763 56.9343 18.0439C56.6695 17.7855 56.4763 17.4688 56.2879 17.1519C56.2681 17.1188 56.2484 17.0857 56.228 17.0516C56.1717 16.9566 56.1164 16.861 56.0612 16.7654C55.9477 16.6041 55.9086 16.5663 55.7287 16.5005C55.5419 16.4832 55.5419 16.4832 55.3292 16.4857C55.2887 16.4855 55.2483 16.4852 55.2066 16.485C55.0704 16.4844 54.9341 16.4846 54.7979 16.4847C54.6995 16.4845 54.6011 16.4841 54.5027 16.4838C54.2319 16.4829 53.961 16.4827 53.6901 16.4826C53.3982 16.4824 53.1063 16.4815 52.8144 16.4807C52.3084 16.4795 51.8025 16.4786 51.2966 16.4781C50.5651 16.4772 49.8336 16.4758 49.1021 16.4742C47.9153 16.4716 46.7286 16.4696 45.5419 16.4678C44.3889 16.4661 43.2359 16.4642 42.0829 16.4619C42.0119 16.4618 41.9409 16.4616 41.8677 16.4615C41.5113 16.4608 41.1549 16.4601 40.7985 16.4594C37.8409 16.4535 34.8832 16.4485 31.9255 16.444C31.9301 16.245 31.9365 16.046 31.9432 15.8471C31.9451 15.7631 31.9451 15.7631 31.947 15.6775C31.9608 15.3 31.9845 14.9722 32.264 14.6922C32.6197 14.6509 32.9763 14.6939 33.3281 14.7487C33.8001 14.816 34.2676 14.8216 34.7434 14.8202C34.8411 14.8203 34.9388 14.8205 35.0366 14.8207C35.3101 14.821 35.5837 14.8205 35.8573 14.8198C36.0341 14.8193 36.2108 14.8192 36.3876 14.819C39.7652 14.8163 43.1427 14.7724 46.5199 14.7344C46.6986 14.7324 46.8772 14.7305 47.0558 14.7285C47.1729 14.7272 47.2899 14.7259 47.4069 14.7246C47.4927 14.7236 47.4927 14.7236 47.5802 14.7226C47.8572 14.7195 48.1341 14.7164 48.411 14.7131C49.4377 14.701 50.4645 14.6898 51.4913 14.6877C51.5792 14.6875 51.6671 14.6872 51.755 14.6868C52.5518 14.6836 53.3387 14.7372 54.1309 14.8212C54.722 14.8826 55.2949 14.9377 55.8415 14.664C56.1668 14.3923 56.4075 14.0461 56.6382 13.6927C57.049 13.0677 57.5254 12.7089 58.2669 12.5449C58.4531 12.5093 58.6384 12.495 58.8272 12.4793Z" fill="white"/>
<path d="M67.7409 33.172C68.3954 33.5977 68.8508 34.1718 69.0596 34.9307C69.2287 35.9193 69.0866 36.8459 68.5327 37.6912C68.0138 38.4081 67.3098 38.7499 66.4598 38.9202C65.5397 38.9912 64.7257 38.8018 64.0062 38.1962C63.736 37.9358 63.5214 37.6402 63.3108 37.3309C63.2893 37.3006 63.2678 37.2703 63.2457 37.239C63.1742 37.1261 63.1742 37.1261 63.1218 36.9971C63.0442 36.8322 62.976 36.7352 62.8358 36.6175C62.5055 36.5382 62.178 36.5497 61.84 36.5542C61.736 36.5538 61.6319 36.5531 61.5279 36.5522C61.2418 36.5504 60.9558 36.5518 60.6697 36.5537C60.3612 36.5552 60.0528 36.5538 59.7443 36.5527C59.2099 36.5512 58.6755 36.5516 58.1411 36.5533C57.3683 36.5557 56.5957 36.5553 55.8229 36.5542C54.5693 36.5525 53.3157 36.553 52.0621 36.555C50.8442 36.5569 49.6264 36.5578 48.4085 36.5572C48.371 36.5572 48.3334 36.5572 48.2947 36.5572C47.8803 36.557 47.4659 36.5567 47.0515 36.5565C43.9273 36.5548 40.8031 36.5567 37.6789 36.561C37.6238 36.4527 37.5689 36.3443 37.5141 36.2359C37.4835 36.1755 37.4529 36.1152 37.4214 36.053C37.3291 35.859 37.2765 35.6904 37.2347 35.4803C37.2221 35.4195 37.2094 35.3588 37.1964 35.2962C37.1713 35.1483 37.1713 35.1483 37.1713 35.0353C37.2524 35.0356 37.2524 35.0356 37.3352 35.0358C40.5404 35.0465 43.7457 35.0529 46.951 35.0541C47.3358 35.0542 47.7206 35.0544 48.1053 35.0546C48.1436 35.0546 48.1819 35.0546 48.2214 35.0547C49.4622 35.0553 50.703 35.0585 51.9439 35.063C53.2553 35.0678 54.5667 35.0696 55.8781 35.0684C56.6637 35.0678 57.4492 35.0695 58.2347 35.0741C58.7733 35.0771 59.3118 35.0772 59.8504 35.075C60.1612 35.0738 60.4719 35.0739 60.7827 35.0774C61.0674 35.0807 61.3519 35.0802 61.6366 35.0769C61.7395 35.0763 61.8424 35.0771 61.9452 35.0794C62.4679 35.1043 62.4679 35.1043 62.9304 34.9018C63.1005 34.7154 63.2245 34.5085 63.3433 34.2868C63.7581 33.5596 64.433 32.9774 65.2216 32.7125C66.0989 32.5001 66.9724 32.7309 67.7409 33.172Z" fill="white"/>
<path d="M60.5124 27.6318C60.9737 28.0214 61.3132 28.5212 61.3863 29.1309C61.394 29.2818 61.3957 29.4311 61.394 29.5822C61.3935 29.6364 61.393 29.6905 61.3925 29.7463C61.3708 30.6797 61.1237 31.5829 60.4668 32.2792C59.7482 32.9176 58.9198 33.1071 57.985 33.0575C57.2557 32.9589 56.4993 32.5978 56.0108 32.0403C55.4467 31.274 55.4467 31.274 55.4467 30.8536C55.3757 30.854 55.3047 30.8543 55.2316 30.8547C53.5362 30.8629 51.8407 30.8707 50.1453 30.8781C49.9354 30.879 49.7255 30.88 49.5156 30.8809C49.4738 30.8811 49.432 30.8813 49.389 30.8815C48.7177 30.8844 48.0463 30.8876 47.375 30.8909C46.6832 30.8943 45.9913 30.8974 45.2995 30.9003C44.9122 30.9019 44.5248 30.9036 44.1375 30.9057C41.3546 30.9201 41.3546 30.9201 40.0564 30.8894C40.0138 30.8885 39.9711 30.8876 39.9272 30.8867C38.7543 30.8612 38.7543 30.8612 38.4122 30.7406C38.2147 30.4759 38.2063 30.2683 38.243 29.9495C38.3125 29.5866 38.3916 29.3332 38.6943 29.1019C38.9061 29.0597 39.1154 29.0648 39.3308 29.0675C39.3958 29.0672 39.4609 29.067 39.5279 29.0667C39.7083 29.0662 39.8887 29.067 40.0691 29.0683C40.2637 29.0694 40.4584 29.0688 40.653 29.0685C41.0343 29.0681 41.4156 29.0692 41.7968 29.0708C42.241 29.0726 42.6852 29.0729 43.1293 29.0731C43.9221 29.0734 44.7149 29.075 45.5077 29.0775C46.2765 29.0798 47.0454 29.0814 47.8142 29.0821C47.8852 29.0822 47.8852 29.0822 47.9576 29.0822C48.1478 29.0824 48.338 29.0826 48.5282 29.0827C49.3498 29.0834 50.1714 29.0848 50.993 29.0862C51.1258 29.0864 51.2587 29.0866 51.3915 29.0868C51.857 29.0876 52.3224 29.0885 52.7879 29.09C52.9803 29.0906 53.1727 29.0911 53.3652 29.0913C53.5741 29.0917 53.783 29.0924 53.9919 29.0932C54.0523 29.0932 54.1127 29.0932 54.175 29.0933C54.4346 29.0946 54.6845 29.1028 54.9416 29.1395C55.1728 29.1852 55.1728 29.1852 55.3374 29.0171C55.5162 28.7717 55.6449 28.4947 55.7838 28.2254C55.9345 27.9389 56.0888 27.7174 56.3492 27.5196C56.3937 27.4856 56.4382 27.4516 56.484 27.4166C57.7295 26.5464 59.3237 26.7904 60.5124 27.6318Z" fill="white"/>
</g>
<path d="M88.4807 36.1362V26.3362H92.3027C93.1614 26.3362 93.8941 26.4715 94.5007 26.7422C95.1074 27.0129 95.5741 27.4049 95.9007 27.9182C96.2274 28.4315 96.3907 29.0429 96.3907 29.7522C96.3907 30.4615 96.2274 31.0729 95.9007 31.5862C95.5741 32.0902 95.1074 32.4775 94.5007 32.7482C93.8941 33.0189 93.1614 33.1542 92.3027 33.1542H89.2507L89.8807 32.5102V36.1362H88.4807ZM95.0327 36.1362L92.5407 32.5802H94.0387L96.5587 36.1362H95.0327ZM89.8807 32.6502L89.2507 31.9642H92.2607C93.1567 31.9642 93.8334 31.7729 94.2907 31.3902C94.7574 30.9982 94.9907 30.4522 94.9907 29.7522C94.9907 29.0522 94.7574 28.5109 94.2907 28.1282C93.8334 27.7455 93.1567 27.5542 92.2607 27.5542H89.2507L89.8807 26.8542V32.6502ZM99.9266 30.5642H104.967V31.7542H99.9266V30.5642ZM100.053 34.9182H105.765V36.1362H98.6526V26.3362H105.569V27.5542H100.053V34.9182ZM110.723 36.1362L106.411 26.3362H107.923L111.885 35.3802H111.017L115.007 26.3362H116.407L112.109 36.1362H110.723ZM121.985 36.2482C121.238 36.2482 120.543 36.1222 119.899 35.8702C119.264 35.6182 118.713 35.2682 118.247 34.8202C117.78 34.3629 117.416 33.8309 117.155 33.2242C116.893 32.6175 116.763 31.9549 116.763 31.2362C116.763 30.5175 116.893 29.8549 117.155 29.2482C117.416 28.6415 117.78 28.1142 118.247 27.6662C118.713 27.2089 119.264 26.8542 119.899 26.6022C120.533 26.3502 121.229 26.2242 121.985 26.2242C122.731 26.2242 123.417 26.3502 124.043 26.6022C124.677 26.8449 125.228 27.1949 125.695 27.6522C126.171 28.1002 126.535 28.6275 126.787 29.2342C127.048 29.8409 127.179 30.5082 127.179 31.2362C127.179 31.9642 127.048 32.6315 126.787 33.2382C126.535 33.8449 126.171 34.3769 125.695 34.8342C125.228 35.2822 124.677 35.6322 124.043 35.8842C123.417 36.1269 122.731 36.2482 121.985 36.2482ZM121.985 35.0022C122.526 35.0022 123.025 34.9089 123.483 34.7222C123.949 34.5355 124.351 34.2742 124.687 33.9382C125.032 33.5929 125.298 33.1915 125.485 32.7342C125.681 32.2769 125.779 31.7775 125.779 31.2362C125.779 30.6949 125.681 30.1955 125.485 29.7382C125.298 29.2809 125.032 28.8842 124.687 28.5482C124.351 28.2029 123.949 27.9369 123.483 27.7502C123.025 27.5635 122.526 27.4702 121.985 27.4702C121.434 27.4702 120.925 27.5635 120.459 27.7502C120.001 27.9369 119.6 28.2029 119.255 28.5482C118.909 28.8842 118.639 29.2809 118.443 29.7382C118.256 30.1955 118.163 30.6949 118.163 31.2362C118.163 31.7775 118.256 32.2769 118.443 32.7342C118.639 33.1915 118.909 33.5929 119.255 33.9382C119.6 34.2742 120.001 34.5355 120.459 34.7222C120.925 34.9089 121.434 35.0022 121.985 35.0022ZM129.319 36.1362V26.3362H130.719V34.9182H136.025V36.1362H129.319ZM141.527 36.2482C140.239 36.2482 139.226 35.8795 138.489 35.1422C137.752 34.4049 137.383 33.3269 137.383 31.9082V26.3362H138.783V31.8522C138.783 32.9442 139.021 33.7422 139.497 34.2462C139.982 34.7502 140.664 35.0022 141.541 35.0022C142.428 35.0022 143.109 34.7502 143.585 34.2462C144.07 33.7422 144.313 32.9442 144.313 31.8522V26.3362H145.671V31.9082C145.671 33.3269 145.302 34.4049 144.565 35.1422C143.837 35.8795 142.824 36.2482 141.527 36.2482ZM150.31 36.1362V27.5542H146.95V26.3362H155.056V27.5542H151.696V36.1362H150.31ZM156.58 36.1362V26.3362H157.98V36.1362H156.58ZM165.338 36.2482C164.592 36.2482 163.896 36.1222 163.252 35.8702C162.618 35.6182 162.067 35.2682 161.6 34.8202C161.134 34.3629 160.77 33.8309 160.508 33.2242C160.247 32.6175 160.116 31.9549 160.116 31.2362C160.116 30.5175 160.247 29.8549 160.508 29.2482C160.77 28.6415 161.134 28.1142 161.6 27.6662C162.067 27.2089 162.618 26.8542 163.252 26.6022C163.887 26.3502 164.582 26.2242 165.338 26.2242C166.085 26.2242 166.771 26.3502 167.396 26.6022C168.031 26.8449 168.582 27.1949 169.048 27.6522C169.524 28.1002 169.888 28.6275 170.14 29.2342C170.402 29.8409 170.532 30.5082 170.532 31.2362C170.532 31.9642 170.402 32.6315 170.14 33.2382C169.888 33.8449 169.524 34.3769 169.048 34.8342C168.582 35.2822 168.031 35.6322 167.396 35.8842C166.771 36.1269 166.085 36.2482 165.338 36.2482ZM165.338 35.0022C165.88 35.0022 166.379 34.9089 166.836 34.7222C167.303 34.5355 167.704 34.2742 168.04 33.9382C168.386 33.5929 168.652 33.1915 168.838 32.7342C169.034 32.2769 169.132 31.7775 169.132 31.2362C169.132 30.6949 169.034 30.1955 168.838 29.7382C168.652 29.2809 168.386 28.8842 168.04 28.5482C167.704 28.2029 167.303 27.9369 166.836 27.7502C166.379 27.5635 165.88 27.4702 165.338 27.4702C164.788 27.4702 164.279 27.5635 163.812 27.7502C163.355 27.9369 162.954 28.2029 162.608 28.5482C162.263 28.8842 161.992 29.2809 161.796 29.7382C161.61 30.1955 161.516 30.6949 161.516 31.2362C161.516 31.7775 161.61 32.2769 161.796 32.7342C161.992 33.1915 162.263 33.5929 162.608 33.9382C162.954 34.2742 163.355 34.5355 163.812 34.7222C164.279 34.9089 164.788 35.0022 165.338 35.0022ZM172.672 36.1362V26.3362H173.82L180.302 34.3862H179.7V26.3362H181.1V36.1362H179.952L173.47 28.0862H174.072V36.1362H172.672ZM185.979 36.1362V27.5542H182.619V26.3362H190.725V27.5542H187.365V36.1362H185.979ZM193.524 30.5642H198.564V31.7542H193.524V30.5642ZM193.65 34.9182H199.362V36.1362H192.25V26.3362H199.166V27.5542H193.65V34.9182ZM205.998 36.2482C205.251 36.2482 204.56 36.1269 203.926 35.8842C203.3 35.6322 202.754 35.2822 202.288 34.8342C201.83 34.3769 201.471 33.8449 201.21 33.2382C200.948 32.6315 200.818 31.9642 200.818 31.2362C200.818 30.5082 200.948 29.8409 201.21 29.2342C201.471 28.6275 201.835 28.1002 202.302 27.6522C202.768 27.1949 203.314 26.8449 203.94 26.6022C204.574 26.3502 205.265 26.2242 206.012 26.2242C206.768 26.2242 207.463 26.3549 208.098 26.6162C208.742 26.8682 209.288 27.2462 209.736 27.7502L208.826 28.6322C208.452 28.2402 208.032 27.9509 207.566 27.7642C207.099 27.5682 206.6 27.4702 206.068 27.4702C205.517 27.4702 205.004 27.5635 204.528 27.7502C204.061 27.9369 203.655 28.1982 203.31 28.5342C202.964 28.8702 202.694 29.2715 202.498 29.7382C202.311 30.1955 202.218 30.6949 202.218 31.2362C202.218 31.7775 202.311 32.2815 202.498 32.7482C202.694 33.2055 202.964 33.6022 203.31 33.9382C203.655 34.2742 204.061 34.5355 204.528 34.7222C205.004 34.9089 205.517 35.0022 206.068 35.0022C206.6 35.0022 207.099 34.9089 207.566 34.7222C208.032 34.5262 208.452 34.2275 208.826 33.8262L209.736 34.7082C209.288 35.2122 208.742 35.5949 208.098 35.8562C207.463 36.1175 206.763 36.2482 205.998 36.2482ZM218.761 26.3362H220.161V36.1362H218.761V26.3362ZM213.133 36.1362H211.733V26.3362H213.133V36.1362ZM218.887 31.7682H212.993V30.5502H218.887V31.7682ZM222.142 36.1362V35.1842L226.132 31.3342C226.487 30.9982 226.748 30.7042 226.916 30.4522C227.093 30.1909 227.21 29.9529 227.266 29.7382C227.331 29.5142 227.364 29.2995 227.364 29.0942C227.364 28.5902 227.187 28.1935 226.832 27.9042C226.477 27.6149 225.959 27.4702 225.278 27.4702C224.755 27.4702 224.284 27.5589 223.864 27.7362C223.444 27.9042 223.08 28.1702 222.772 28.5342L221.82 27.7082C222.193 27.2322 222.693 26.8682 223.318 26.6162C223.953 26.3549 224.648 26.2242 225.404 26.2242C226.085 26.2242 226.678 26.3362 227.182 26.5602C227.686 26.7749 228.073 27.0875 228.344 27.4982C228.624 27.9089 228.764 28.3942 228.764 28.9542C228.764 29.2715 228.722 29.5842 228.638 29.8922C228.554 30.2002 228.395 30.5269 228.162 30.8722C227.929 31.2175 227.593 31.6049 227.154 32.0342L223.598 35.4642L223.262 34.9182H229.184V36.1362H222.142ZM233.331 36.2482C232.64 36.2482 231.968 36.1409 231.315 35.9262C230.671 35.7115 230.144 35.4222 229.733 35.0582L230.377 33.9522C230.704 34.2602 231.128 34.5122 231.651 34.7082C232.174 34.9042 232.734 35.0022 233.331 35.0022C234.059 35.0022 234.624 34.8482 235.025 34.5402C235.436 34.2229 235.641 33.7982 235.641 33.2662C235.641 32.7529 235.445 32.3422 235.053 32.0342C234.67 31.7169 234.059 31.5582 233.219 31.5582H232.435V30.5782L235.347 26.9942L235.543 27.5542H230.181V26.3362H236.649V27.2882L233.751 30.8582L233.023 30.4242H233.485C234.67 30.4242 235.557 30.6902 236.145 31.2222C236.742 31.7542 237.041 32.4309 237.041 33.2522C237.041 33.8029 236.906 34.3069 236.635 34.7642C236.364 35.2215 235.954 35.5855 235.403 35.8562C234.862 36.1175 234.171 36.2482 233.331 36.2482Z" fill="white"/>
<defs>
<clipPath id="clip0_315_537">
<rect width="69.0968" height="62.2724" fill="white"/>
</clipPath>
</defs>
</svg>
